# xmcd CD database file
#
# Track frame offsets:
#	150
#	20648
#	45400
#	67905
#	85108
#	104166
#	128471
#	145078
#	165132
#	191197
#
# Disc length: 2794 seconds
#
# Revision: 0
# Processed by: cddbd v1.5.2PL0 Copyright (c) Steve Scherf et al.
# Submitted via: CDex 1.51
#
DISCID=7b0ae80a
DTITLE=Various Artist - Kessler Collection Vol 1
DYEAR=2006
DGENRE=Jazz
TTITLE0=Big Muff - My Funny Valentine
TTITLE1=World Wide Groove Corp - Besame Mucho
TTITLE2=World Wide Groove Corp - Tangerine
TTITLE3=Dual Sessions - Summertime
TTITLE4=Dual Sessions - Body and Soul
TTITLE5=Dual Sessions - Fly Me To The Moon
TTITLE6=Dual Sessions - My One And Only Love
TTITLE7=Ray Charles - Georgia On My Mind
TTITLE8=Jimmy Scott - When Did You Leave Heaven
TTITLE9=Mellowtunes - Whatever Lola Wants
EXTD=YEAR: 2006
EXTT0=
EXTT1=
EXTT2=
EXTT3=
EXTT4=
EXTT5=
EXTT6=
EXTT7=
EXTT8=
EXTT9=
PLAYORDER=
